<svg width="24" height="24" viewBox="0 0 24 24" fill="none" xmlns="http://www.w3.org/2000/svg">
<rect x="0.5" y="0.5" width="23" height="23" rx="5.5" stroke="white"/>
<path d="M15.0833 6.96152C15.0833 6.88419 15.0526 6.81003 14.9979 6.75535C14.9432 6.70067 14.869 6.66995 14.7917 6.66995H13.3333C12.599 6.63338 11.88 6.88886 11.3335 7.38056C10.787 7.87225 10.4574 8.5602 10.4167 9.29409V10.8686H8.95832C8.88097 10.8686 8.80678 10.8993 8.75208 10.954C8.69739 11.0087 8.66666 11.0828 8.66666 11.1601V12.6763C8.66666 12.7536 8.69739 12.8278 8.75208 12.8825C8.80678 12.9372 8.88097 12.9679 8.95832 12.9679H10.4167V16.8749C10.4167 16.9523 10.4474 17.0264 10.5021 17.0811C10.5568 17.1358 10.631 17.1665 10.7083 17.1665H12.4583C12.5357 17.1665 12.6099 17.1358 12.6646 17.0811C12.7193 17.0264 12.75 16.9523 12.75 16.8749V12.9679H14.2783C14.3432 12.9688 14.4065 12.9481 14.4583 12.909C14.51 12.87 14.5473 12.8147 14.5642 12.7521L14.9842 11.236C14.9958 11.1929 14.9973 11.1477 14.9887 11.1039C14.9801 11.0601 14.9616 11.0189 14.9345 10.9834C14.9075 10.9479 14.8726 10.9191 14.8327 10.8992C14.7928 10.8793 14.7488 10.8688 14.7042 10.8686H12.75V9.29409C12.7645 9.14975 12.8323 9.016 12.9402 8.91895C13.048 8.82191 13.1882 8.76854 13.3333 8.76926H14.7917C14.869 8.76926 14.9432 8.73854 14.9979 8.68386C15.0526 8.62918 15.0833 8.55502 15.0833 8.47769V6.96152Z" fill="white"/>
</svg>
